<?xml version="1.0" encoding="UTF-8"?>
<svg xmlns="http://www.w3.org/2000/svg" xmlns:xlink="http://www.w3.org/1999/xlink" viewBox="70 3 311 68" width="311" height="68"><defs><g><g id="glyph-2-0"> <path d="M 15.92 -16.55 C 15.92 -19.3 15.68 -21.16 15.2 -22.12 C 14.72 -23.1 13.87 -23.59 12.64 -23.59 C 11.46 -23.59 10.66 -23.08 10.23 -22.05 C 9.8 -21.02 9.59 -18.39 9.59 -14.14 L 9.59 -13.5 C 9.59 -9.73 9.82 -7.25 10.28 -6.06 C 10.75 -4.88 11.57 -4.28 12.75 -4.28 C 13.81 -4.28 14.6 -4.8 15.12 -5.83 C 15.66 -6.87 15.92 -8.45 15.92 -10.58 Z M 23.36 -0.53 C 23.36 3.72 22.57 6.66 20.98 8.31 C 19.4 9.97 16.63 10.8 12.69 10.8 C 9.47 10.8 6.98 10.13 5.23 8.81 C 3.49 7.49 2.62 5.61 2.62 3.19 L 2.62 2.84 L 9.91 2.86 C 9.96 4.13 10.21 5.02 10.66 5.55 C 11.1 6.07 11.86 6.33 12.92 6.33 C 13.99 6.33 14.74 6.03 15.17 5.44 C 15.6 4.84 15.85 3.29 15.92 0.78 L 15.92 -2.36 C 14.97 -1.34 13.98 -0.58 12.95 -0.08 C 11.92 0.42 10.82 0.67 9.64 0.67 C 6.94 0.67 5.01 -0.39 3.84 -2.53 C 2.69 -4.66 2.11 -8.27 2.11 -13.34 C 2.11 -16.85 2.22 -19.39 2.45 -20.95 C 2.69 -22.52 3.09 -23.8 3.66 -24.8 C 4.25 -25.87 5.1 -26.7 6.2 -27.3 C 7.3 -27.9 8.55 -28.2 9.95 -28.2 C 11.33 -28.2 12.53 -27.91 13.56 -27.34 C 14.59 -26.77 15.38 -25.96 15.92 -24.91 L 16.19 -27.53 L 23.56 -27.53 C 23.5 -26.43 23.45 -25.38 23.41 -24.38 C 23.38 -23.38 23.36 -22.4 23.36 -21.45 Z M 23.36 -0.53 " /> </g> <g id="glyph-2-1"> <path d="M 13.45 -28.2 C 17.36 -28.2 20.16 -27.13 21.88 -25 C 23.58 -22.86 24.44 -19.33 24.44 -14.39 C 24.44 -8.62 23.62 -4.68 21.98 -2.56 C 20.36 -0.45 17.46 0.61 13.3 0.61 C 9.11 0.61 6.2 -0.45 4.56 -2.58 C 2.93 -4.7 2.11 -8.64 2.11 -14.39 C 2.11 -19.37 2.98 -22.91 4.73 -25.03 C 6.48 -27.14 9.39 -28.2 13.45 -28.2 Z M 9.75 -14.03 C 9.75 -10.16 10 -7.54 10.52 -6.19 C 11.04 -4.84 11.96 -4.17 13.3 -4.17 C 14.63 -4.17 15.55 -4.84 16.06 -6.19 C 16.58 -7.54 16.84 -10.16 16.84 -14.03 C 16.84 -17.83 16.58 -20.34 16.06 -21.55 C 15.55 -22.75 14.61 -23.36 13.25 -23.36 C 11.91 -23.36 11 -22.75 10.5 -21.53 C 10 -20.32 9.75 -17.82 9.75 -14.03 Z M 9.75 -14.03 " /> </g> <g id="glyph-2-2"> <path d="M 10.38 -24.7 C 10.99 -25.84 11.8 -26.7 12.83 -27.3 C 13.86 -27.9 15.05 -28.2 16.42 -28.2 C 18.17 -28.2 19.64 -27.84 20.83 -27.11 C 22.02 -26.38 22.87 -25.33 23.36 -23.97 C 24.05 -25.38 24.94 -26.44 26 -27.14 C 27.07 -27.85 28.33 -28.2 29.77 -28.2 C 32.13 -28.2 33.94 -27.58 35.19 -26.34 C 36.45 -25.1 37.08 -23.3 37.08 -20.95 L 37.08 0 L 29.48 0 L 29.48 -18.8 C 29.48 -20.62 29.3 -21.85 28.92 -22.5 C 28.55 -23.16 27.92 -23.48 27.02 -23.48 C 26.04 -23.48 25.24 -23.12 24.64 -22.41 C 24.04 -21.7 23.73 -20.75 23.73 -19.58 L 23.73 0 L 16.14 0 L 16.14 -18.8 C 16.14 -20.59 15.95 -21.82 15.56 -22.48 C 15.19 -23.15 14.54 -23.48 13.61 -23.48 C 12.63 -23.48 11.84 -23.13 11.25 -22.42 C 10.66 -21.72 10.38 -20.77 10.38 -19.58 L 10.38 0 L 2.78 0 L 2.78 -22.61 C 2.78 -23.88 2.77 -24.86 2.73 -25.55 C 2.7 -26.23 2.64 -26.89 2.55 -27.53 L 10.17 -27.53 Z M 10.38 -24.7 " /> </g> <g id="glyph-2-3"> <path d="M 9.86 -17.28 L 16.62 -17.28 L 16.62 -19.58 C 16.62 -20.88 16.33 -21.89 15.75 -22.61 C 15.16 -23.34 14.35 -23.7 13.3 -23.7 C 12.16 -23.7 11.3 -23.24 10.72 -22.33 C 10.14 -21.41 9.86 -20.04 9.86 -18.22 Z M 16.73 -10.2 L 24.28 -10.2 C 24.28 -6.6 23.36 -3.89 21.53 -2.09 C 19.7 -0.29 16.95 0.61 13.3 0.61 C 9.11 0.61 6.2 -0.45 4.56 -2.58 C 2.93 -4.7 2.11 -8.64 2.11 -14.39 C 2.11 -19.33 2.97 -22.86 4.7 -25 C 6.43 -27.13 9.3 -28.2 13.3 -28.2 C 17 -28.2 19.76 -27.29 21.56 -25.45 C 23.38 -23.63 24.28 -20.85 24.28 -17.11 L 24.28 -12.94 L 9.86 -12.94 L 9.86 -10.09 C 9.86 -8.02 10.12 -6.52 10.66 -5.58 C 11.19 -4.64 12.05 -4.17 13.25 -4.17 C 14.38 -4.17 15.25 -4.64 15.84 -5.58 C 16.44 -6.52 16.73 -7.89 16.73 -9.7 Z M 16.73 -10.2 " /> </g> <g id="glyph-2-4"> <path d="M 1.73 -9.11 L 9.09 -9.11 L 9.09 -8.55 C 9.09 -7.19 9.34 -6.11 9.84 -5.31 C 10.34 -4.52 11.01 -4.12 11.84 -4.12 C 12.86 -4.12 13.68 -4.38 14.3 -4.89 C 14.92 -5.41 15.23 -6.1 15.23 -6.97 C 15.23 -8.43 13.52 -10.07 10.11 -11.89 C 9.34 -12.29 8.74 -12.6 8.33 -12.83 C 5.42 -14.43 3.6 -15.74 2.88 -16.75 C 2.14 -17.76 1.78 -19.04 1.78 -20.58 C 1.78 -22.88 2.67 -24.74 4.45 -26.17 C 6.24 -27.6 8.61 -28.31 11.56 -28.31 C 14.82 -28.31 17.29 -27.68 18.95 -26.41 C 20.63 -25.14 21.47 -23.29 21.47 -20.84 C 21.47 -20.75 21.46 -20.61 21.44 -20.42 C 21.43 -20.23 21.42 -20.08 21.42 -19.95 L 14.31 -19.98 C 14.33 -20.09 14.35 -20.2 14.36 -20.33 C 14.37 -20.45 14.38 -20.62 14.38 -20.84 C 14.38 -21.95 14.14 -22.77 13.69 -23.31 C 13.23 -23.86 12.54 -24.14 11.61 -24.14 C 10.8 -24.14 10.15 -23.91 9.64 -23.47 C 9.13 -23.02 8.88 -22.44 8.88 -21.72 C 8.88 -20.54 10.43 -19.11 13.53 -17.44 C 14.89 -16.69 15.98 -16.07 16.8 -15.59 C 18.96 -14.27 20.44 -13.04 21.23 -11.91 C 22.04 -10.77 22.44 -9.4 22.44 -7.8 C 22.44 -5.08 21.46 -3.04 19.52 -1.67 C 17.58 -0.3 14.7 0.38 10.88 0.38 C 7.91 0.38 5.64 -0.35 4.05 -1.8 C 2.45 -3.24 1.66 -5.32 1.66 -8.02 C 1.66 -8.3 1.66 -8.51 1.67 -8.66 C 1.68 -8.81 1.7 -8.96 1.73 -9.11 Z M 1.73 -9.11 " /> </g> <g id="glyph-2-5"> </g> <g id="glyph-2-6"> <path d="M 2.69 -20.36 L 2.69 -20.89 C 2.69 -23.29 3.59 -25.1 5.39 -26.34 C 7.19 -27.58 9.83 -28.2 13.3 -28.2 C 16.73 -28.2 19.25 -27.55 20.84 -26.27 C 22.45 -24.98 23.25 -22.96 23.25 -20.2 L 23.25 -6.48 C 23.25 -5.27 23.29 -4.11 23.38 -3.03 C 23.47 -1.96 23.6 -0.95 23.78 0 L 17.05 0 L 16.47 -3.14 C 15.79 -2.14 14.78 -1.33 13.44 -0.7 C 12.1 -0.09 10.69 0.22 9.2 0.22 C 6.97 0.22 5.2 -0.55 3.89 -2.09 C 2.59 -3.64 1.94 -5.74 1.94 -8.39 C 1.94 -11.47 2.88 -13.76 4.78 -15.25 C 6.68 -16.74 9.72 -17.6 13.92 -17.84 L 16.31 -17.84 L 16.31 -19.09 C 16.31 -20.99 16.08 -22.32 15.61 -23.08 C 15.15 -23.85 14.38 -24.23 13.3 -24.23 C 12.11 -24.23 11.21 -23.91 10.61 -23.25 C 10 -22.6 9.7 -21.64 9.7 -20.36 Z M 16.31 -13.66 C 13.6 -13.66 11.73 -13.29 10.69 -12.55 C 9.66 -11.8 9.14 -10.5 9.14 -8.62 C 9.14 -7.27 9.39 -6.22 9.91 -5.47 C 10.43 -4.72 11.14 -4.34 12.06 -4.34 C 13.43 -4.34 14.47 -4.94 15.2 -6.12 C 15.94 -7.31 16.31 -9.02 16.31 -11.25 Z M 16.31 -13.66 " /> </g> <g id="glyph-2-7"> <path d="M 2.62 0 L 2.62 -39.52 L 10.11 -39.52 L 10.11 0 Z M 2.62 0 " /> </g> <g id="glyph-2-8"> <path d="M 7.64 0 L 0.77 -27.53 L 8.52 -27.53 L 10.44 -16.45 C 10.72 -14.86 10.97 -13.04 11.2 -11 C 11.44 -8.97 11.66 -6.77 11.84 -4.39 C 12.22 -7.29 12.99 -11.05 14.16 -15.7 L 14.31 -16.31 L 17.2 -27.53 L 24.55 -27.53 L 15.88 0 Z M 7.64 0 " /> </g> <g id="glyph-2-9"> <path d="M 2.69 -20.36 L 2.69 -20.89 C 2.69 -23.29 3.59 -25.1 5.39 -26.34 C 7.19 -27.58 9.83 -28.2 13.3 -28.2 C 16.73 -28.2 19.25 -27.55 20.84 -26.27 C 22.45 -24.98 23.25 -22.96 23.25 -20.2 L 23.25 -6.48 C 23.25 -5.27 23.29 -4.11 23.38 -3.03 C 23.47 -1.96 23.6 -0.95 23.78 0 L 17.05 0 L 16.47 -3.14 C 15.79 -2.14 14.78 -1.33 13.44 -0.7 C 12.1 -0.09 10.69 0.22 9.2 0.22 C 6.97 0.22 5.2 -0.55 3.89 -2.09 C 2.59 -3.64 1.94 -5.74 1.94 -8.39 C 1.94 -11.47 2.88 -13.76 4.78 -15.25 C 6.68 -16.74 9.72 -17.6 13.92 -17.84 L 16.31 -17.84 L 16.31 -19.09 C 16.31 -20.99 16.08 -22.32 15.61 -23.08 C 15.15 -23.85 14.38 -24.23 13.3 -24.23 C 12.11 -24.23 11.21 -23.91 10.61 -23.25 C 10 -22.6 9.7 -21.64 9.7 -20.36 Z M 16.31 -13.66 C 13.6 -13.66 11.73 -13.29 10.69 -12.55 C 9.66 -11.8 9.14 -10.5 9.14 -8.62 C 9.14 -7.27 9.39 -6.22 9.91 -5.47 C 10.43 -4.72 11.14 -4.34 12.06 -4.34 C 13.43 -4.34 14.47 -4.94 15.2 -6.12 C 15.94 -7.31 16.31 -9.02 16.31 -11.25 Z M 21.62 -39.52 C 21.19 -37.3 20.55 -35.66 19.72 -34.62 C 18.88 -33.59 17.81 -33.08 16.5 -33.08 C 16.16 -33.08 15.86 -33.1 15.58 -33.14 C 15.3 -33.19 15.02 -33.26 14.73 -33.34 L 12.56 -34.08 C 12.28 -34.16 12 -34.22 11.73 -34.27 C 11.46 -34.32 11.2 -34.34 10.95 -34.34 C 10.41 -34.34 9.98 -34.16 9.67 -33.81 C 9.37 -33.47 9.15 -32.91 9.02 -32.14 L 6.12 -32.14 C 6.53 -34.36 7.14 -35.98 7.95 -37.02 C 8.77 -38.05 9.83 -38.58 11.14 -38.58 C 11.45 -38.58 11.8 -38.54 12.17 -38.47 C 12.55 -38.39 12.93 -38.3 13.3 -38.17 L 15.48 -37.53 C 15.69 -37.46 15.9 -37.4 16.11 -37.36 C 16.32 -37.33 16.56 -37.31 16.84 -37.31 C 17.35 -37.31 17.77 -37.49 18.08 -37.84 C 18.39 -38.21 18.6 -38.77 18.7 -39.52 Z M 21.62 -39.52 " /> </g> </g></defs><g transform="translate(-108.27 -388.41)"><path fill="#C6990B" d="M 108.27 441.49 L 489.03 441.49 L 489.03 437.95 L 108.27 437.95 Z M 108.27 441.49 " /> <path fill="#FFFFFF" d="M 250.28 451.1 L 253.05 451.1 L 253.05 450.48 C 253.05 449.94 252.93 449.53 252.71 449.25 C 252.49 448.96 252.16 448.82 251.73 448.82 C 251.24 448.82 250.88 449.01 250.65 449.37 C 250.41 449.74 250.29 450.31 250.28 451.1 Z M 254.27 453.08 C 254.23 453.84 253.98 454.43 253.53 454.86 C 253.08 455.29 252.46 455.5 251.69 455.5 C 250.73 455.5 250.04 455.21 249.62 454.62 C 249.21 454.04 249 453.06 249 451.68 C 249 450.39 249.21 449.45 249.64 448.87 C 250.07 448.28 250.75 447.98 251.69 447.98 C 252.58 447.98 253.23 448.22 253.65 448.69 C 254.06 449.16 254.27 449.9 254.27 450.91 L 254.27 452.03 L 250.27 452.03 L 250.27 452.44 C 250.27 453.15 250.38 453.66 250.61 453.98 C 250.84 454.3 251.2 454.46 251.69 454.46 C 252.06 454.46 252.36 454.34 252.6 454.1 C 252.83 453.86 252.97 453.52 253.03 453.08 Z M 244.87 449.02 C 244.41 449.02 244.07 449.24 243.84 449.68 C 243.62 450.12 243.5 450.8 243.5 451.72 C 243.5 452.79 243.61 453.53 243.84 453.95 C 244.05 454.36 244.42 454.57 244.94 454.57 C 245.42 454.57 245.77 454.35 245.98 453.91 C 246.21 453.46 246.31 452.75 246.31 451.76 C 246.31 450.78 246.2 450.08 245.97 449.66 C 245.75 449.23 245.38 449.02 244.87 449.02 Z M 246.31 448.95 L 246.31 445.03 L 247.55 445.03 L 247.55 454.05 C 247.55 454.41 247.56 454.68 247.57 454.86 C 247.57 455.03 247.59 455.18 247.61 455.31 L 246.4 455.31 L 246.33 454.62 C 246.1 454.91 245.84 455.13 245.57 455.27 C 245.29 455.42 244.96 455.48 244.61 455.48 C 243.8 455.48 243.2 455.19 242.82 454.6 C 242.44 454.01 242.25 453.08 242.25 451.82 C 242.25 450.51 242.44 449.54 242.82 448.91 C 243.2 448.28 243.79 447.96 244.6 447.96 C 244.96 447.96 245.29 448.05 245.58 448.21 C 245.86 448.38 246.11 448.62 246.31 448.95 Z M 239.67 451.57 C 238.67 451.57 237.97 451.69 237.58 451.92 C 237.18 452.15 236.98 452.54 236.98 453.09 C 236.98 453.44 237.09 453.73 237.31 453.97 C 237.53 454.2 237.8 454.32 238.13 454.32 C 238.62 454.32 239 454.13 239.27 453.75 C 239.54 453.38 239.67 452.84 239.67 452.13 Z M 237.21 450.03 L 235.89 450.03 L 235.89 449.89 C 235.89 449.27 236.11 448.79 236.55 448.47 C 236.98 448.14 237.61 447.98 238.45 447.98 C 239.29 447.98 239.9 448.16 240.29 448.49 C 240.68 448.83 240.88 449.35 240.88 450.07 L 240.88 453.42 C 240.88 453.75 240.89 454.08 240.91 454.4 C 240.93 454.71 240.96 455.03 241.01 455.34 L 239.78 455.34 L 239.7 454.43 C 239.46 454.75 239.17 454.99 238.85 455.16 C 238.53 455.33 238.19 455.41 237.84 455.41 C 237.22 455.41 236.72 455.21 236.34 454.8 C 235.95 454.4 235.77 453.87 235.77 453.21 C 235.77 452.39 236.03 451.77 236.57 451.34 C 237.1 450.93 237.9 450.71 238.96 450.71 L 239.66 450.71 L 239.66 450.36 C 239.66 449.79 239.57 449.4 239.41 449.19 C 239.24 448.97 238.95 448.86 238.54 448.86 C 238.11 448.86 237.77 448.96 237.55 449.14 C 237.33 449.32 237.21 449.6 237.21 449.96 Z M 231.73 449.02 C 231.27 449.02 230.93 449.24 230.7 449.68 C 230.48 450.12 230.37 450.8 230.37 451.72 C 230.37 452.79 230.47 453.53 230.69 453.95 C 230.91 454.36 231.28 454.57 231.8 454.57 C 232.28 454.57 232.62 454.35 232.84 453.91 C 233.06 453.46 233.17 452.75 233.17 451.76 C 233.17 450.78 233.06 450.08 232.83 449.66 C 232.6 449.23 232.23 449.02 231.73 449.02 Z M 233.17 448.95 L 233.17 445.03 L 234.41 445.03 L 234.41 454.05 C 234.41 454.41 234.42 454.68 234.43 454.86 C 234.44 455.03 234.45 455.18 234.47 455.31 L 233.25 455.31 L 233.19 454.62 C 232.96 454.91 232.7 455.13 232.43 455.27 C 232.15 455.42 231.83 455.48 231.47 455.48 C 230.66 455.48 230.06 455.19 229.68 454.6 C 229.3 454.01 229.11 453.08 229.11 451.82 C 229.11 450.51 229.3 449.54 229.68 448.91 C 230.06 448.28 230.65 447.96 231.45 447.96 C 231.82 447.96 232.15 448.05 232.43 448.21 C 232.72 448.38 232.97 448.62 233.17 448.95 Z M 227.61 455.34 L 226.42 455.34 L 226.42 448.16 L 227.61 448.16 Z M 226.42 455.34 Z M 227.61 446.36 L 226.42 446.36 L 226.42 445.05 L 227.61 445.05 Z M 226.42 446.36 Z M 224.74 455.34 L 223.52 455.34 L 223.52 445.03 L 224.74 445.03 Z M 221.83 455.34 L 220.65 455.34 L 220.65 448.16 L 221.83 448.16 Z M 220.65 455.34 Z M 221.83 446.36 L 220.65 446.36 L 220.65 445.05 L 221.83 445.05 Z M 220.65 446.36 Z M 216.48 449.02 C 215.98 449.02 215.61 449.23 215.38 449.66 C 215.14 450.08 215.02 450.76 215.02 451.69 C 215.02 452.71 215.13 453.45 215.36 453.9 C 215.57 454.35 215.93 454.57 216.41 454.57 C 216.93 454.57 217.3 454.37 217.51 453.96 C 217.72 453.55 217.83 452.82 217.83 451.76 C 217.83 450.81 217.72 450.11 217.5 449.68 C 217.29 449.23 216.95 449.02 216.48 449.02 Z M 213.73 455.34 C 213.75 455.17 213.77 454.98 213.78 454.77 C 213.79 454.57 213.8 454.33 213.8 454.05 L 213.8 445.03 L 215.04 445.03 L 215.04 448.95 C 215.24 448.62 215.49 448.38 215.77 448.21 C 216.06 448.05 216.39 447.96 216.76 447.96 C 217.56 447.96 218.15 448.28 218.53 448.91 C 218.91 449.54 219.11 450.51 219.11 451.83 C 219.11 453.09 218.91 454.02 218.52 454.62 C 218.13 455.23 217.52 455.53 216.7 455.53 C 216.32 455.53 215.99 455.45 215.71 455.31 C 215.44 455.17 215.21 454.96 215.05 454.68 L 214.89 455.34 Z M 211.05 451.57 C 210.05 451.57 209.35 451.69 208.96 451.92 C 208.56 452.15 208.36 452.54 208.36 453.09 C 208.36 453.44 208.47 453.73 208.69 453.97 C 208.9 454.2 209.18 454.32 209.51 454.32 C 210 454.32 210.38 454.13 210.64 453.75 C 210.91 453.38 211.05 452.84 211.05 452.13 Z M 208.59 450.03 L 207.28 450.03 L 207.28 449.89 C 207.28 449.27 207.49 448.79 207.93 448.47 C 208.36 448.14 208.99 447.98 209.84 447.98 C 210.66 447.98 211.28 448.16 211.67 448.49 C 212.06 448.83 212.26 449.35 212.26 450.07 L 212.26 453.42 C 212.26 453.75 212.27 454.08 212.29 454.4 C 212.31 454.71 212.34 455.03 212.38 455.34 L 211.16 455.34 L 211.08 454.43 C 210.84 454.75 210.55 454.99 210.23 455.16 C 209.91 455.33 209.57 455.41 209.21 455.41 C 208.6 455.41 208.1 455.21 207.71 454.8 C 207.34 454.4 207.14 453.87 207.14 453.21 C 207.14 452.39 207.41 451.77 207.95 451.34 C 208.48 450.93 209.28 450.71 210.34 450.71 L 211.04 450.71 L 211.04 450.36 C 211.04 449.79 210.95 449.4 210.79 449.19 C 210.62 448.97 210.33 448.86 209.92 448.86 C 209.48 448.86 209.15 448.96 208.93 449.14 C 208.7 449.32 208.59 449.6 208.59 449.96 Z M 204.93 446.11 L 204.93 448.16 L 206.36 448.16 L 206.36 449.04 L 204.93 449.04 L 204.93 453.34 C 204.93 453.73 204.99 453.99 205.11 454.14 C 205.23 454.29 205.45 454.36 205.77 454.36 C 205.88 454.36 206.06 454.35 206.32 454.33 L 206.36 454.33 L 206.36 455.27 C 206.17 455.31 205.99 455.34 205.82 455.36 C 205.66 455.38 205.5 455.39 205.36 455.39 C 204.75 455.39 204.33 455.27 204.08 455.04 C 203.83 454.8 203.71 454.38 203.71 453.77 L 203.71 449.04 L 202.62 449.04 L 202.62 448.16 L 203.71 448.16 L 203.71 446.71 Z M 200.52 455.34 L 200.52 450.74 C 200.52 450.05 200.43 449.57 200.25 449.31 C 200.07 449.05 199.77 448.92 199.34 448.92 C 198.84 448.92 198.49 449.1 198.27 449.46 C 198.04 449.82 197.93 450.39 197.93 451.18 L 197.93 455.34 L 196.71 455.34 L 196.71 449.29 C 196.71 449.13 196.7 448.96 196.69 448.78 C 196.68 448.59 196.66 448.38 196.64 448.16 L 197.89 448.16 L 197.94 448.98 C 198.2 448.64 198.47 448.38 198.78 448.23 C 199.08 448.07 199.44 447.98 199.84 447.98 C 200.43 447.98 200.9 448.16 201.25 448.5 C 201.59 448.85 201.77 449.32 201.77 449.91 L 201.77 455.34 Z M 192.59 449.04 C 192.07 449.04 191.7 449.24 191.48 449.66 C 191.25 450.08 191.14 450.77 191.14 451.74 C 191.14 452.72 191.25 453.42 191.48 453.84 C 191.7 454.25 192.07 454.46 192.59 454.46 C 193.1 454.46 193.47 454.25 193.69 453.84 C 193.91 453.42 194.02 452.73 194.02 451.75 C 194.02 450.77 193.91 450.07 193.69 449.66 C 193.47 449.24 193.1 449.04 192.59 449.04 Z M 189.88 451.73 C 189.88 450.41 190.09 449.46 190.53 448.88 C 190.96 448.28 191.64 447.98 192.59 447.98 C 193.54 447.98 194.22 448.28 194.64 448.87 C 195.07 449.46 195.28 450.41 195.28 451.74 C 195.28 453.06 195.07 454.02 194.64 454.61 C 194.21 455.21 193.53 455.5 192.59 455.5 C 191.64 455.5 190.95 455.21 190.52 454.61 C 190.09 454.02 189.88 453.06 189.88 451.73 Z M 187.47 452.89 L 188.71 452.89 C 188.7 453.72 188.46 454.36 188.01 454.82 C 187.56 455.28 186.93 455.5 186.13 455.5 C 185.18 455.5 184.5 455.21 184.08 454.62 C 183.66 454.04 183.45 453.08 183.45 451.75 C 183.45 450.43 183.66 449.46 184.08 448.88 C 184.5 448.28 185.18 447.98 186.13 447.98 C 186.89 447.98 187.5 448.19 187.97 448.6 C 188.44 449.01 188.67 449.55 188.67 450.21 L 188.67 450.37 L 187.45 450.37 C 187.45 449.95 187.34 449.62 187.12 449.39 C 186.9 449.15 186.59 449.04 186.2 449.04 C 185.65 449.04 185.27 449.23 185.04 449.64 C 184.82 450.04 184.7 450.74 184.7 451.75 C 184.7 452.73 184.81 453.43 185.04 453.84 C 185.25 454.25 185.62 454.46 186.13 454.46 C 186.53 454.46 186.85 454.31 187.09 454.03 C 187.33 453.75 187.46 453.37 187.47 452.89 " /> <path fill="#C6990B" d="M 155.73 463.34 C 155.73 470.14 151.29 473.34 146.15 473.34 C 141.02 473.34 136.57 470.14 136.57 463.34 L 136.57 450.44 L 155.73 450.44 Z M 140.11 437.95 L 122.42 437.95 L 122.42 463.34 C 122.42 479.45 134.63 487.49 146.15 487.49 C 157.67 487.49 169.88 479.45 169.88 463.34 L 169.88 437.95 L 140.11 437.95 " /> <path fill="#939598" d="M 136.57 434.41 L 136.57 412.55 C 136.57 405.75 141.02 402.56 146.15 402.56 C 151.29 402.56 155.73 405.75 155.73 412.55 L 155.73 430.87 L 169.88 430.87 L 169.88 412.55 C 169.88 396.46 157.67 388.41 146.15 388.41 C 134.63 388.41 122.42 396.46 122.42 412.55 L 122.42 434.41 L 136.57 434.41 " /> <g fill="#FFFFFF"> <use xlink:href="#glyph-2-0" x="181.52" y="435.01" /> <use xlink:href="#glyph-2-1" x="207.67" y="435.01" /> <use xlink:href="#glyph-2-2" x="234.2" y="435.01" /> <use xlink:href="#glyph-2-3" x="273.96" y="435.01" /> <use xlink:href="#glyph-2-4" x="300.12" y="435.01" /> <use xlink:href="#glyph-2-5" x="324.28" y="435.01" /> <use xlink:href="#glyph-2-0" x="337.57" y="435.01" /> <use xlink:href="#glyph-2-6" x="363.72" y="435.01" /> <use xlink:href="#glyph-2-7" x="389.87" y="435.01" /> <use xlink:href="#glyph-2-8" x="402.63" y="435.01" /> <use xlink:href="#glyph-2-9" x="427.05" y="435.01" /> <use xlink:href="#glyph-2-1" x="453.21" y="435.01" /> </g> </g></svg>
